<svg width="69" height="55" viewBox="0 0 69 55" fill="none" xmlns="http://www.w3.org/2000/svg">
<path d="M0 10C0 4.47715 4.47715 0 10 0H69V55H10C4.47715 55 0 50.5228 0 45V10Z" fill="url(#paint0_linear_196_1498)"/>
<path d="M44.7688 40.125C42.0778 40.125 39.4191 39.5386 36.7927 38.3657C34.1663 37.1929 31.7767 35.5297 29.624 33.376C27.4712 31.2233 25.8084 28.8337 24.6355 26.2073C23.4627 23.5809 22.8759 20.9222 22.875 18.2313C22.875 17.8438 23.0042 17.5208 23.2625 17.2625C23.5208 17.0042 23.8438 16.875 24.2313 16.875H29.4625C29.7639 16.875 30.033 16.9775 30.2698 17.1824C30.5066 17.3874 30.6465 17.6293 30.6896 17.9083L31.5292 22.4292C31.5722 22.7736 31.5615 23.0642 31.4969 23.301C31.4323 23.5378 31.3139 23.7424 31.1417 23.9146L28.0094 27.0792C28.4399 27.8757 28.951 28.6451 29.5426 29.3874C30.1342 30.1297 30.7856 30.8457 31.4969 31.5354C32.1642 32.2028 32.8639 32.8219 33.5958 33.3928C34.3278 33.9637 35.1028 34.4856 35.9208 34.9583L38.9562 31.9229C39.15 31.7292 39.4032 31.5841 39.7157 31.4876C40.0283 31.3912 40.3349 31.3641 40.6354 31.4062L45.0917 32.3104C45.3931 32.3965 45.6406 32.5528 45.8344 32.7793C46.0281 33.0058 46.125 33.2585 46.125 33.5375V38.7688C46.125 39.1562 45.9958 39.4792 45.7375 39.7375C45.4792 39.9958 45.1562 40.125 44.7688 40.125Z" fill="white"/>
<defs>
<linearGradient id="paint0_linear_196_1498" x1="34.5" y1="0" x2="34.5" y2="55" gradientUnits="userSpaceOnUse">
<stop stop-color="#324D58"/>
<stop offset="1" stop-color="#003246"/>
</linearGradient>
</defs>
</svg>
