<svg width="30" height="31" viewBox="0 0 30 31" fill="none" xmlns="http://www.w3.org/2000/svg">
<path d="M15 2.5835C8.0875 2.5835 2.5 8.35725 2.5 15.5002C2.5 22.6431 8.0875 28.4168 15 28.4168C21.9125 28.4168 27.5 22.6431 27.5 15.5002C27.5 8.35725 21.9125 2.5835 15 2.5835ZM20.375 21.0543C19.8875 21.5581 19.1 21.5581 18.6125 21.0543L15 17.3214L11.3875 21.0543C10.9 21.5581 10.1125 21.5581 9.625 21.0543C9.1375 20.5506 9.1375 19.7368 9.625 19.2331L13.2375 15.5002L9.625 11.7672C9.1375 11.2635 9.1375 10.4497 9.625 9.946C10.1125 9.44225 10.9 9.44225 11.3875 9.946L15 13.6789L18.6125 9.946C19.1 9.44225 19.8875 9.44225 20.375 9.946C20.8625 10.4497 20.8625 11.2635 20.375 11.7672L16.7625 15.5002L20.375 19.2331C20.85 19.7239 20.85 20.5506 20.375 21.0543Z" fill="url(#paint0_linear_847_778)"/>
<defs>
<linearGradient id="paint0_linear_847_778" x1="15" y1="2.5835" x2="15" y2="28.4168" gradientUnits="userSpaceOnUse">
<stop stop-color="#324D58"/>
<stop offset="1" stop-color="#003246"/>
</linearGradient>
</defs>
</svg>
