<svg width="122" height="122" viewBox="0 0 122 122" fill="none" xmlns="http://www.w3.org/2000/svg">
<g filter="url(#filter0_d_219_2)">
<ellipse cx="107.34" cy="36.3224" rx="3.7153" ry="3.74282" fill="url(#paint0_linear_219_2)"/>
<ellipse cx="61.2519" cy="63.5649" rx="42.2519" ry="42.5649" fill="url(#paint1_linear_219_2)"/>
<path d="M57 49.5V50H65V49.5C65 48.4391 64.5786 47.4217 63.8284 46.6716C63.0783 45.9214 62.0609 45.5 61 45.5C59.9391 45.5 58.9217 45.9214 58.1716 46.6716C57.4214 47.4217 57 48.4391 57 49.5ZM54.5 50V49.5C54.5 47.7761 55.1848 46.1228 56.4038 44.9038C57.6228 43.6848 59.2761 43 61 43C62.7239 43 64.3772 43.6848 65.5962 44.9038C66.8152 46.1228 67.5 47.7761 67.5 49.5V50H78.75C79.0815 50 79.3995 50.1317 79.6339 50.3661C79.8683 50.6005 80 50.9185 80 51.25C80 51.5815 79.8683 51.8995 79.6339 52.1339C79.3995 52.3683 79.0815 52.5 78.75 52.5H75.833L73.833 76.356C73.681 78.1676 72.854 79.856 71.5158 81.0866C70.1776 82.3172 68.426 83.0001 66.608 83H55.392C53.5742 82.9998 51.8228 82.3168 50.4848 81.0863C49.1468 79.8557 48.3199 78.1674 48.168 76.356L46.168 52.5H43.25C42.9185 52.5 42.6005 52.3683 42.3661 52.1339C42.1317 51.8995 42 51.5815 42 51.25C42 50.9185 42.1317 50.6005 42.3661 50.3661C42.6005 50.1317 42.9185 50 43.25 50H54.5ZM58.5 59.25C58.5 59.0858 58.4677 58.9233 58.4049 58.7716C58.342 58.62 58.25 58.4822 58.1339 58.3661C58.0178 58.25 57.88 58.158 57.7284 58.0951C57.5767 58.0323 57.4142 58 57.25 58C57.0858 58 56.9233 58.0323 56.7716 58.0951C56.62 58.158 56.4822 58.25 56.3661 58.3661C56.25 58.4822 56.158 58.62 56.0951 58.7716C56.0323 58.9233 56 59.0858 56 59.25V73.75C56 73.9142 56.0323 74.0767 56.0951 74.2284C56.158 74.38 56.25 74.5178 56.3661 74.6339C56.4822 74.75 56.62 74.842 56.7716 74.9049C56.9233 74.9677 57.0858 75 57.25 75C57.4142 75 57.5767 74.9677 57.7284 74.9049C57.88 74.842 58.0178 74.75 58.1339 74.6339C58.25 74.5178 58.342 74.38 58.4049 74.2284C58.4677 74.0767 58.5 73.9142 58.5 73.75V59.25ZM64.75 58C64.06 58 63.5 58.56 63.5 59.25V73.75C63.5 74.0815 63.6317 74.3995 63.8661 74.6339C64.1005 74.8683 64.4185 75 64.75 75C65.0815 75 65.3995 74.8683 65.6339 74.6339C65.8683 74.3995 66 74.0815 66 73.75V59.25C66 58.56 65.44 58 64.75 58Z" fill="white"/>
<ellipse cx="14.8299" cy="33.7026" rx="4.82989" ry="4.86566" fill="url(#paint2_linear_219_2)"/>
<ellipse cx="64.6155" cy="12.7427" rx="1.85765" ry="1.87141" fill="url(#paint3_linear_219_2)"/>
<ellipse cx="17.8021" cy="79.365" rx="1.11459" ry="1.12285" fill="url(#paint4_linear_219_2)"/>
<ellipse cx="86.9076" cy="104.068" rx="1.11459" ry="1.12285" fill="url(#paint5_linear_219_2)"/>
<ellipse cx="106.226" cy="76.3706" rx="2.60071" ry="2.61997" fill="url(#paint6_linear_219_2)"/>
<ellipse cx="46.7823" cy="109.307" rx="2.60071" ry="2.61997" fill="url(#paint7_linear_219_2)"/>
</g>
<defs>
<filter id="filter0_d_219_2" x="0" y="0.871338" width="121.055" height="121.056" filterUnits="userSpaceOnUse" color-interpolation-filters="sRGB">
<feFlood flood-opacity="0" result="BackgroundImageFix"/>
<feColorMatrix in="SourceAlpha" type="matrix" values="0 0 0 0 0 0 0 0 0 0 0 0 0 0 0 0 0 0 127 0" result="hardAlpha"/>
<feOffset/>
<feGaussianBlur stdDeviation="5"/>
<feComposite in2="hardAlpha" operator="out"/>
<feColorMatrix type="matrix" values="0 0 0 0 0 0 0 0 0 0 0 0 0 0 0 0 0 0 0.25 0"/>
<feBlend mode="normal" in2="BackgroundImageFix" result="effect1_dropShadow_219_2"/>
<feBlend mode="normal" in="SourceGraphic" in2="effect1_dropShadow_219_2" result="shape"/>
</filter>
<linearGradient id="paint0_linear_219_2" x1="107.34" y1="32.5796" x2="107.34" y2="40.0652" gradientUnits="userSpaceOnUse">
<stop stop-color="#032D62"/>
<stop offset="1" stop-color="#5D47EF"/>
</linearGradient>
<linearGradient id="paint1_linear_219_2" x1="61.2519" y1="21" x2="61.2519" y2="106.13" gradientUnits="userSpaceOnUse">
<stop stop-color="#032D62"/>
<stop offset="1" stop-color="#032D62"/>
</linearGradient>
<linearGradient id="paint2_linear_219_2" x1="14.8299" y1="28.8369" x2="14.8299" y2="38.5682" gradientUnits="userSpaceOnUse">
<stop stop-color="#032D62"/>
<stop offset="1" stop-color="#5D47EF"/>
</linearGradient>
<linearGradient id="paint3_linear_219_2" x1="64.6155" y1="10.8713" x2="64.6155" y2="14.6142" gradientUnits="userSpaceOnUse">
<stop stop-color="#032D62"/>
<stop offset="1" stop-color="#5D47EF"/>
</linearGradient>
<linearGradient id="paint4_linear_219_2" x1="17.8021" y1="78.2422" x2="17.8021" y2="80.4879" gradientUnits="userSpaceOnUse">
<stop stop-color="#032D62"/>
<stop offset="1" stop-color="#5D47EF"/>
</linearGradient>
<linearGradient id="paint5_linear_219_2" x1="86.9076" y1="102.945" x2="86.9076" y2="105.19" gradientUnits="userSpaceOnUse">
<stop stop-color="#032D62"/>
<stop offset="1" stop-color="#5D47EF"/>
</linearGradient>
<linearGradient id="paint6_linear_219_2" x1="106.226" y1="73.7506" x2="106.226" y2="78.9906" gradientUnits="userSpaceOnUse">
<stop stop-color="#032D62"/>
<stop offset="1" stop-color="#5D47EF"/>
</linearGradient>
<linearGradient id="paint7_linear_219_2" x1="46.7823" y1="106.687" x2="46.7823" y2="111.927" gradientUnits="userSpaceOnUse">
<stop stop-color="#032D62"/>
<stop offset="1" stop-color="#5D47EF"/>
</linearGradient>
</defs>
</svg>
