<svg width="25" height="25" viewBox="0 0 25 25" fill="none" xmlns="http://www.w3.org/2000/svg">
<path d="M12.5 0C9.04883 0 5.92383 1.39941 3.66162 3.66162C1.39941 5.92383 0 9.04883 0 12.5C0 15.9512 1.39941 19.0762 3.66162 21.3384C5.92383 23.6006 9.04883 25 12.5 25C15.9512 25 19.0762 23.6006 21.3384 21.3384C23.6006 19.0762 25 15.9512 25 12.5C25 9.04883 23.6006 5.92383 21.3384 3.66162C19.0762 1.39941 15.9512 0 12.5 0ZM12.5 17.9048C13.187 17.9048 13.7495 17.3408 13.7495 16.6553V13.749H16.6553C17.3413 13.749 17.9053 13.1855 17.9053 12.499C17.9053 11.813 17.3428 11.2495 16.6553 11.2495H13.7495V8.34375C13.7495 7.65771 13.1865 7.09424 12.5 7.09424C11.8135 7.09424 11.2505 7.65625 11.2505 8.34375V11.2495H8.34424C7.65723 11.2495 7.09424 11.812 7.09424 12.499C7.09424 13.1865 7.6582 13.749 8.34424 13.749H11.2505V16.6553C11.2505 17.3423 11.813 17.9048 12.5 17.9048ZM4.84033 4.84033C6.80029 2.88037 9.50879 1.66797 12.5 1.66797C15.4912 1.66797 18.1997 2.88037 20.1597 4.84033C22.1196 6.80029 23.332 9.50879 23.332 12.5C23.332 15.4912 22.1196 18.1997 20.1597 20.1597C18.1997 22.1196 15.4912 23.332 12.5 23.332C9.50879 23.332 6.80029 22.1196 4.84033 20.1597C2.88037 18.1997 1.66797 15.4912 1.66797 12.5C1.66797 9.50879 2.88037 6.80029 4.84033 4.84033Z" fill="#1D5ADB"/>
</svg>
