<svg width="24" height="24" viewBox="0 0 24 24" fill="none" xmlns="http://www.w3.org/2000/svg">
<path d="M5.25 18.2663L10.7663 18.2475L22.8063 6.3225C23.2788 5.85 23.5388 5.2225 23.5388 4.555C23.5388 3.8875 23.2788 3.26 22.8063 2.7875L20.8238 0.805C19.8788 -0.14 18.23 -0.135 17.2925 0.80125L5.25 12.7288V18.2663ZM19.0563 2.5725L21.0425 4.55125L19.0463 6.52875L17.0638 4.5475L19.0563 2.5725ZM7.75 13.7713L15.2875 6.305L17.27 8.2875L9.73375 15.7513L7.75 15.7575V13.7713Z" fill="#1D5ADB"/>
<path d="M2.75 23.25H20.25C21.6288 23.25 22.75 22.1288 22.75 20.75V9.915L20.25 12.415V20.75H6.6975C6.665 20.75 6.63125 20.7625 6.59875 20.7625C6.5575 20.7625 6.51625 20.7513 6.47375 20.75H2.75V3.25H11.3088L13.8088 0.75H2.75C1.37125 0.75 0.25 1.87125 0.25 3.25V20.75C0.25 22.1288 1.37125 23.25 2.75 23.25Z" fill="#1D5ADB"/>
</svg>
