<svg width="69" height="55" viewBox="0 0 69 55" fill="none" xmlns="http://www.w3.org/2000/svg">
<path d="M0 10C0 4.47715 4.47715 0 10 0H69V55H10C4.47715 55 0 50.5228 0 45V10Z" fill="url(#paint0_linear_1_166)"/>
<path d="M36.7471 11C40.7499 11 43.992 14.1822 43.992 18.1111C43.992 22.04 40.7499 25.2222 36.7471 25.2222C32.7443 25.2222 29.5022 22.04 29.5022 18.1111C29.5022 14.1822 32.7443 11 36.7471 11ZM43.992 29.7378C43.992 31.6222 43.4848 36.0133 40.0254 40.92L38.5583 32.3333L40.2609 28.9911C39.1379 28.8667 37.9606 28.7778 36.7471 28.7778C35.5336 28.7778 34.3563 28.8667 33.2333 28.9911L34.9359 32.3333L33.4688 40.92C30.0094 36.0133 29.5022 31.6222 29.5022 29.7378C25.1734 30.9822 22.2574 33.2222 22.2574 35.8889V43H51.2368V35.8889C51.2368 33.2222 48.3389 30.9822 43.992 29.7378Z" fill="white"/>
<defs>
<linearGradient id="paint0_linear_1_166" x1="34.5" y1="0" x2="34.5" y2="55" gradientUnits="userSpaceOnUse">
<stop stop-color="#324D58"/>
<stop offset="1" stop-color="#003246"/>
</linearGradient>
</defs>
</svg>
